<svg xmlns="http://www.w3.org/2000/svg" viewBox="0 0 375 373">
  <defs>
    <linearGradient id="a" x1="221.401%" x2="-5.513%" y1="-103.001%" y2="110.015%">
      <stop offset="0%" stop-color="#FF52C1"/>
      <stop offset="7.3%" stop-color="#F952C5"/>
      <stop offset="100%" stop-color="#9952FF" stop-opacity="0"/>
    </linearGradient>
    <linearGradient id="b" x1="212.128%" x2="-5.513%" y1="-106.466%" y2="110.015%">
      <stop offset="0%" stop-color="#FF52C1"/>
      <stop offset="0%" stop-color="#F952C5"/>
      <stop offset="100%" stop-color="#9952FF" stop-opacity="0"/>
    </linearGradient>
    <linearGradient id="c" x1="21.681%" x2="145.861%" y1="5.006%" y2="145.591%">
      <stop offset="0%" stop-color="#FF52C1"/>
      <stop offset="100%" stop-color="#9952FF"/>
    </linearGradient>
  </defs>
  <g fill="none" fill-rule="evenodd">
    <path fill="url(#a)" d="M0 265.7 319.689 0H375v73.607L0 313.664z"/>
    <path fill="url(#b)" d="M0 318.687 375 102v119.176L0 360.228z" transform="matrix(-1 0 0 1 375 0)"/>
    <rect width="28" height="28" x="318.799" y="166.799" fill="url(#c)" opacity=".558" rx="3" transform="rotate(45 332.799 180.799)"/>
    <rect width="9" height="9" x="117.864" y="361.864" fill="url(#c)" opacity=".387" rx="1" transform="rotate(45 122.364 366.364)"/>
    <rect width="18" height="18" x="155.728" y="335.728" fill="url(#c)" opacity=".387" rx="1" transform="rotate(45 164.728 344.728)"/>
    <rect width="14" height="14" x="132.728" y="79.899" fill="url(#c)" opacity=".387" rx="1" transform="rotate(45 139.728 86.9)"/>
    <rect width="17" height="17" x="316.521" y="335.521" fill="url(#c)" opacity=".387" rx="1" transform="rotate(45 325.02 344.02)"/>
    <rect width="42" height="42" x="42.598" y="261.497" fill="url(#c)" opacity=".503" rx="3" transform="rotate(45 63.598 282.497)"/>
  </g>
</svg>
